ffmpeg started on 2025-06-04 at 20:56:35
Report written to "D:\Convert\FFMetrics\reports\psnr_report-6.txt"
Log level: 32
Command line:
ffmpeg -hide_banner -nostdin -i "G:\\\xc0\xed\xe8\xec\xe5\\\xce\xed\xe3\xee\xe8\xed\xe3\xe8\\!_36_\xce\xf1\xe5\xed\xfc_2024\\DreamCast\\\xc4\xe5\xf2\xf1\xea\xe0\xff \xc4\xe5\xeb\xe8\xea\xee\\[DC] Delicos Nursery - 11_Telegram_HEVC.mkv" -i "G:\\\xc0\xed\xe8\xec\xe5\\\xce\xed\xe3\xee\xe8\xed\xe3\xe8\\!_36_\xce\xf1\xe5\xed\xfc_2024\\DreamCast\\\xc4\xe5\xf2\xf1\xea\xe0\xff \xc4\xe5\xeb\xe8\xea\xee\\[DC] Delicos Nursery - 11_Telegram.mp4" -lavfi "[0:v]settb=AVTB,setpts=PTS-STARTPTS,format=pix_fmts=yuv420p10,fps=24000/1001,scale=1920:1080:flags=bicubic[main];[1:v]settb=AVTB,setpts=PTS-STARTPTS,format=pix_fmts=yuv420p,fps=24000/1001,scale=1920:1080:flags=bicubic[ref];[main][ref]psnr=eof_action=endall:stats_file='D\\:/Convert/FFMetrics/logs/psnr_logfile-6.txt'" -f null -
Input #0, matroska,webm, from 'G:\Аниме\Онгоинги\!_36_Осень_2024\DreamCast\Детская Делико\[DC] Delicos Nursery - 11_Telegram_HEVC.mkv':
  Metadata:
    COMPATIBLE_BRANDS: isomiso2avc1mp41
    MAJOR_BRAND     : isom
    MINOR_VERSION   : 512
    ENCODER         : Lavf61.7.100
  Duration: 00:23:46.65, start: -0.021000, bitrate: 2007 kb/s
  Stream #0:0: Video: hevc (Main 10), yuv420p10le(tv, bt709, progressive), 1920x1080 [SAR 1:1 DAR 16:9], 23.98 fps, 23.98 tbr, 1k tbn (default)
      Metadata:
        HANDLER_NAME    : VideoHandler
        VENDOR_ID       : [0][0][0][0]
        ENCODER         : Lavc61.19.100 libx265
        BPS             : 1810197
        DURATION        : 00:23:46.549708333
        NUMBER_OF_FRAMES: 34203
        NUMBER_OF_BYTES : 322791946
        _STATISTICS_WRITING_APP: mkvpropedit v66.0.0 ('Josie') 64-bit
        _STATISTICS_WRITING_DATE_UTC: 2025-05-30 13:47:29
        _STATISTICS_TAGS: BPS DURATION NUMBER_OF_FRAMES NUMBER_OF_BYTES
  Stream #0:1: Audio: aac (LC), 48000 Hz, stereo, fltp (default)
      Metadata:
        HANDLER_NAME    : SoundHandler
        VENDOR_ID       : [0][0][0][0]
        ENCODER         : Lavc61.19.100 aac
        BPS             : 193780
        DURATION        : 00:23:46.645000000
        NUMBER_OF_FRAMES: 66875
        NUMBER_OF_BYTES : 34557077
        _STATISTICS_WRITING_APP: mkvpropedit v66.0.0 ('Josie') 64-bit
        _STATISTICS_WRITING_DATE_UTC: 2025-05-30 13:47:29
        _STATISTICS_TAGS: BPS DURATION NUMBER_OF_FRAMES NUMBER_OF_BYTES
Input #1, mov,mp4,m4a,3gp,3g2,mj2, from 'G:\Аниме\Онгоинги\!_36_Осень_2024\DreamCast\Детская Делико\[DC] Delicos Nursery - 11_Telegram.mp4':
  Metadata:
    major_brand     : isom
    minor_version   : 512
    compatible_brands: isomiso2avc1mp41
    encoder         : Lavf61.1.100
  Duration: 00:23:46.62, start: 0.000000, bitrate: 3903 kb/s
  Stream #1:0[0x1](und): Video: h264 (High) (avc1 / 0x31637661), yuv420p(tv, bt709, progressive), 1920x1080 [SAR 1:1 DAR 16:9], 3755 kb/s, 23.98 fps, 23.98 tbr, 24k tbn (default)
      Metadata:
        handler_name    : VideoHandler
        vendor_id       : [0][0][0][0]
        encoder         : Lavc61.3.100 h264_qsv
  Stream #1:1[0x2](und): Audio: aac (HE-AACv2) (mp4a / 0x6134706D), 48000 Hz, stereo, fltp, 144 kb/s (default)
      Metadata:
        handler_name    : SoundHandler
        vendor_id       : [0][0][0][0]
Stream mapping:
  Stream #0:0 (hevc) -> settb:default
  Stream #1:0 (h264) -> settb:default
  psnr:default -> Stream #0:0 (wrapped_avframe)
  Stream #0:1 -> #0:1 (aac (native) -> pcm_s16le (native))
Output #0, null, to 'pipe:':
  Metadata:
    COMPATIBLE_BRANDS: isomiso2avc1mp41
    MAJOR_BRAND     : isom
    MINOR_VERSION   : 512
    encoder         : Lavf61.7.100
  Stream #0:0: Video: wrapped_avframe, yuv420p10le(tv, bt709, progressive), 1920x1080 [SAR 1:1 DAR 16:9], q=2-31, 200 kb/s, 23.98 fps, 23.98 tbn
      Metadata:
        encoder         : Lavc61.19.100 wrapped_avframe
  Stream #0:1: Audio: pcm_s16le, 48000 Hz, stereo, s16, 1536 kb/s (default)
      Metadata:
        HANDLER_NAME    : SoundHandler
        VENDOR_ID       : [0][0][0][0]
        _STATISTICS_TAGS: BPS DURATION NUMBER_OF_FRAMES NUMBER_OF_BYTES
        BPS             : 193780
        DURATION        : 00:23:46.645000000
        NUMBER_OF_FRAMES: 66875
        NUMBER_OF_BYTES : 34557077
        _STATISTICS_WRITING_APP: mkvpropedit v66.0.0 ('Josie') 64-bit
        _STATISTICS_WRITING_DATE_UTC: 2025-05-30 13:47:29
        encoder         : Lavc61.19.100 pcm_s16le
frame=  175 fps=0.0 q=-0.0 size=N/A time=00:00:07.29 bitrate=N/A speed=  14x    frame=  375 fps=364 q=-0.0 size=N/A time=00:00:15.64 bitrate=N/A speed=15.2x    frame=  611 fps=393 q=-0.0 size=N/A time=00:00:25.48 bitrate=N/A speed=16.4x    frame=  868 fps=418 q=-0.0 size=N/A time=00:00:36.24 bitrate=N/A speed=17.5x    frame= 1063 fps=412 q=-0.0 size=N/A time=00:00:44.33 bitrate=N/A speed=17.2x    frame= 1302 fps=421 q=-0.0 size=N/A time=00:00:54.30 bitrate=N/A speed=17.5x    frame= 1567 fps=433 q=-0.0 size=N/A time=00:01:05.35 bitrate=N/A speed=18.1x    frame= 1780 fps=431 q=-0.0 size=N/A time=00:01:14.24 bitrate=N/A speed=  18x    frame= 2043 fps=439 q=-0.0 size=N/A time=00:01:25.21 bitrate=N/A speed=18.3x    frame= 2274 fps=441 q=-0.0 size=N/A time=00:01:34.84 bitrate=N/A speed=18.4x    frame= 2530 fps=445 q=-0.0 size=N/A time=00:01:45.52 bitrate=N/A speed=18.6x    frame= 2764 fps=446 q=-0.0 size=N/A time=00:01:55.28 bitrate=N/A speed=18.6x    frame= 2996 fps=446 q=-0.0 size=N/A time=00:02:04.95 bitrate=N/A speed=18.6x    frame= 3203 fps=444 q=-0.0 size=N/A time=00:02:13.59 bitrate=N/A speed=18.5x    frame= 3407 fps=440 q=-0.0 size=N/A time=00:02:22.10 bitrate=N/A speed=18.4x    frame= 3571 fps=433 q=-0.0 size=N/A time=00:02:28.94 bitrate=N/A speed=  18x    frame= 3774 fps=430 q=-0.0 size=N/A time=00:02:37.40 bitrate=N/A speed=  18x    frame= 3979 fps=429 q=-0.0 size=N/A time=00:02:45.95 bitrate=N/A speed=17.9x    frame= 4206 fps=429 q=-0.0 size=N/A time=00:02:55.42 bitrate=N/A speed=17.9x    frame= 4385 fps=425 q=-0.0 size=N/A time=00:03:02.89 bitrate=N/A speed=17.7x    frame= 4562 fps=421 q=-0.0 size=N/A time=00:03:10.27 bitrate=N/A speed=17.6x    frame= 4732 fps=417 q=-0.0 size=N/A time=00:03:17.36 bitrate=N/A speed=17.4x    frame= 4942 fps=416 q=-0.0 size=N/A time=00:03:26.12 bitrate=N/A speed=17.4x    frame= 5111 fps=413 q=-0.0 size=N/A time=00:03:33.17 bitrate=N/A speed=17.2x    frame= 5317 fps=412 q=-0.0 size=N/A time=00:03:41.76 bitrate=N/A speed=17.2x    frame= 5520 fps=412 q=-0.0 size=N/A time=00:03:50.23 bitrate=N/A speed=17.2x    frame= 5727 fps=411 q=-0.0 size=N/A time=00:03:58.86 bitrate=N/A speed=17.1x    frame= 5939 fps=411 q=-0.0 size=N/A time=00:04:07.70 bitrate=N/A speed=17.2x    frame= 6186 fps=413 q=-0.0 size=N/A time=00:04:18.00 bitrate=N/A speed=17.2x    frame= 6453 fps=417 q=-0.0 size=N/A time=00:04:29.14 bitrate=N/A speed=17.4x    frame= 6711 fps=419 q=-0.0 size=N/A time=00:04:39.90 bitrate=N/A speed=17.5x    frame= 6948 fps=421 q=-0.0 size=N/A time=00:04:49.78 bitrate=N/A speed=17.5x    frame= 7184 fps=421 q=-0.0 size=N/A time=00:04:59.63 bitrate=N/A speed=17.6x    frame= 7431 fps=423 q=-0.0 size=N/A time=00:05:09.93 bitrate=N/A speed=17.7x    frame= 7699 fps=426 q=-0.0 size=N/A time=00:05:21.11 bitrate=N/A speed=17.8x    frame= 7951 fps=428 q=-0.0 size=N/A time=00:05:31.62 bitrate=N/A speed=17.8x    frame= 8215 fps=430 q=-0.0 size=N/A time=00:05:42.63 bitrate=N/A speed=17.9x    frame= 8424 fps=429 q=-0.0 size=N/A time=00:05:51.35 bitrate=N/A speed=17.9x    frame= 8605 fps=427 q=-0.0 size=N/A time=00:05:58.90 bitrate=N/A speed=17.8x    frame= 8794 fps=426 q=-0.0 size=N/A time=00:06:06.78 bitrate=N/A speed=17.8x    frame= 9010 fps=426 q=-0.0 size=N/A time=00:06:15.79 bitrate=N/A speed=17.8x    frame= 9245 fps=427 q=-0.0 size=N/A time=00:06:25.59 bitrate=N/A speed=17.8x    frame= 9514 fps=429 q=-0.0 size=N/A time=00:06:36.81 bitrate=N/A speed=17.9x    frame= 9713 fps=428 q=-0.0 size=N/A time=00:06:45.11 bitrate=N/A speed=17.8x    frame= 9872 fps=425 q=-0.0 size=N/A time=00:06:51.74 bitrate=N/A speed=17.7x    frame=10108 fps=426 q=-0.0 size=N/A time=00:07:01.58 bitrate=N/A speed=17.8x    frame=10307 fps=425 q=-0.0 size=N/A time=00:07:09.88 bitrate=N/A speed=17.7x    frame=10518 fps=425 q=-0.0 size=N/A time=00:07:18.68 bitrate=N/A speed=17.7x    frame=10738 fps=425 q=-0.0 size=N/A time=00:07:27.86 bitrate=N/A speed=17.7x    frame=10968 fps=425 q=-0.0 size=N/A time=00:07:37.45 bitrate=N/A speed=17.7x    frame=11213 fps=426 q=-0.0 size=N/A time=00:07:47.67 bitrate=N/A speed=17.8x    frame=11407 fps=425 q=-0.0 size=N/A time=00:07:55.76 bitrate=N/A speed=17.7x    frame=11643 fps=426 q=-0.0 size=N/A time=00:08:05.61 bitrate=N/A speed=17.8x    frame=11887 fps=427 q=-0.0 size=N/A time=00:08:15.78 bitrate=N/A speed=17.8x    frame=12087 fps=426 q=-0.0 size=N/A time=00:08:24.12 bitrate=N/A speed=17.8x    frame=12305 fps=426 q=-0.0 size=N/A time=00:08:33.22 bitrate=N/A speed=17.8x    frame=12525 fps=426 q=-0.0 size=N/A time=00:08:42.39 bitrate=N/A speed=17.8x    frame=12750 fps=426 q=-0.0 size=N/A time=00:08:51.78 bitrate=N/A speed=17.8x    frame=12984 fps=426 q=-0.0 size=N/A time=00:09:01.54 bitrate=N/A speed=17.8x    frame=13201 fps=426 q=-0.0 size=N/A time=00:09:10.59 bitrate=N/A speed=17.8x    frame=13412 fps=426 q=-0.0 size=N/A time=00:09:19.39 bitrate=N/A speed=17.8x    frame=13664 fps=427 q=-0.0 size=N/A time=00:09:29.90 bitrate=N/A speed=17.8x    frame=13881 fps=427 q=-0.0 size=N/A time=00:09:38.95 bitrate=N/A speed=17.8x    frame=14114 fps=427 q=-0.0 size=N/A time=00:09:48.67 bitrate=N/A speed=17.8x    frame=14296 fps=426 q=-0.0 size=N/A time=00:09:56.26 bitrate=N/A speed=17.8x    frame=14516 fps=426 q=-0.0 size=N/A time=00:10:05.43 bitrate=N/A speed=17.8x    frame=14753 fps=427 q=-0.0 size=N/A time=00:10:15.32 bitrate=N/A speed=17.8x    frame=14933 fps=425 q=-0.0 size=N/A time=00:10:22.83 bitrate=N/A speed=17.7x    frame=15151 fps=425 q=-0.0 size=N/A time=00:10:31.92 bitrate=N/A speed=17.7x    frame=15364 fps=425 q=-0.0 size=N/A time=00:10:40.80 bitrate=N/A speed=17.7x    frame=15558 fps=424 q=-0.0 size=N/A time=00:10:48.89 bitrate=N/A speed=17.7x    frame=15766 fps=424 q=-0.0 size=N/A time=00:10:57.57 bitrate=N/A speed=17.7x    frame=16009 fps=425 q=-0.0 size=N/A time=00:11:07.70 bitrate=N/A speed=17.7x    frame=16246 fps=425 q=-0.0 size=N/A time=00:11:17.59 bitrate=N/A speed=17.7x    frame=16486 fps=426 q=-0.0 size=N/A time=00:11:27.60 bitrate=N/A speed=17.8x    frame=16675 fps=425 q=-0.0 size=N/A time=00:11:35.48 bitrate=N/A speed=17.7x    frame=16906 fps=425 q=-0.0 size=N/A time=00:11:45.12 bitrate=N/A speed=17.7x    frame=17126 fps=425 q=-0.0 size=N/A time=00:11:54.29 bitrate=N/A speed=17.7x    frame=17350 fps=425 q=-0.0 size=N/A time=00:12:03.63 bitrate=N/A speed=17.7x    frame=17535 fps=424 q=-0.0 size=N/A time=00:12:11.35 bitrate=N/A speed=17.7x    frame=17769 fps=425 q=-0.0 size=N/A time=00:12:21.11 bitrate=N/A speed=17.7x    frame=17994 fps=425 q=-0.0 size=N/A time=00:12:30.49 bitrate=N/A speed=17.7x    frame=18214 fps=425 q=-0.0 size=N/A time=00:12:39.67 bitrate=N/A speed=17.7x    frame=18426 fps=425 q=-0.0 size=N/A time=00:12:48.51 bitrate=N/A speed=17.7x    frame=18658 fps=425 q=-0.0 size=N/A time=00:12:58.19 bitrate=N/A speed=17.7x    frame=18880 fps=425 q=-0.0 size=N/A time=00:13:07.45 bitrate=N/A speed=17.7x    frame=19097 fps=425 q=-0.0 size=N/A time=00:13:16.50 bitrate=N/A speed=17.7x    frame=19293 fps=425 q=-0.0 size=N/A time=00:13:24.67 bitrate=N/A speed=17.7x    frame=19449 fps=423 q=-0.0 size=N/A time=00:13:31.18 bitrate=N/A speed=17.6x    frame=19645 fps=423 q=-0.0 size=N/A time=00:13:39.36 bitrate=N/A speed=17.6x    frame=19839 fps=422 q=-0.0 size=N/A time=00:13:47.45 bitrate=N/A speed=17.6x    frame=20015 fps=421 q=-0.0 size=N/A time=00:13:54.79 bitrate=N/A speed=17.6x    frame=20206 fps=421 q=-0.0 size=N/A time=00:14:02.75 bitrate=N/A speed=17.6x    frame=20416 fps=421 q=-0.0 size=N/A time=00:14:11.51 bitrate=N/A speed=17.5x    frame=20627 fps=421 q=-0.0 size=N/A time=00:14:20.31 bitrate=N/A speed=17.5x    frame=20795 fps=420 q=-0.0 size=N/A time=00:14:27.32 bitrate=N/A speed=17.5x    frame=20997 fps=419 q=-0.0 size=N/A time=00:14:35.74 bitrate=N/A speed=17.5x    frame=21175 fps=418 q=-0.0 size=N/A time=00:14:43.17 bitrate=N/A speed=17.5x    frame=21353 fps=418 q=-0.0 size=N/A time=00:14:50.59 bitrate=N/A speed=17.4x    frame=21561 fps=418 q=-0.0 size=N/A time=00:14:59.27 bitrate=N/A speed=17.4x    frame=21749 fps=417 q=-0.0 size=N/A time=00:15:07.11 bitrate=N/A speed=17.4x    frame=21914 fps=416 q=-0.0 size=N/A time=00:15:13.99 bitrate=N/A speed=17.4x    frame=22075 fps=415 q=-0.0 size=N/A time=00:15:20.71 bitrate=N/A speed=17.3x    frame=22230 fps=414 q=-0.0 size=N/A time=00:15:27.17 bitrate=N/A speed=17.3x    frame=22476 fps=415 q=-0.0 size=N/A time=00:15:37.43 bitrate=N/A speed=17.3x    frame=22662 fps=414 q=-0.0 size=N/A time=00:15:45.19 bitrate=N/A speed=17.3x    frame=22837 fps=413 q=-0.0 size=N/A time=00:15:52.49 bitrate=N/A speed=17.2x    frame=23013 fps=413 q=-0.0 size=N/A time=00:15:59.83 bitrate=N/A speed=17.2x    frame=23164 fps=412 q=-0.0 size=N/A time=00:16:06.13 bitrate=N/A speed=17.2x    frame=23341 fps=411 q=-0.0 size=N/A time=00:16:13.51 bitrate=N/A speed=17.1x    frame=23565 fps=411 q=-0.0 size=N/A time=00:16:22.85 bitrate=N/A speed=17.2x    frame=23776 fps=411 q=-0.0 size=N/A time=00:16:31.65 bitrate=N/A speed=17.1x    frame=24011 fps=412 q=-0.0 size=N/A time=00:16:41.45 bitrate=N/A speed=17.2x    frame=24225 fps=412 q=-0.0 size=N/A time=00:16:50.38 bitrate=N/A speed=17.2x    frame=24408 fps=411 q=-0.0 size=N/A time=00:16:58.01 bitrate=N/A speed=17.1x    frame=24607 fps=411 q=-0.0 size=N/A time=00:17:06.31 bitrate=N/A speed=17.1x    frame=24771 fps=410 q=-0.0 size=N/A time=00:17:13.15 bitrate=N/A speed=17.1x    frame=24930 fps=409 q=-0.0 size=N/A time=00:17:19.78 bitrate=N/A speed=17.1x    frame=25138 fps=409 q=-0.0 size=N/A time=00:17:28.46 bitrate=N/A speed=17.1x    frame=25368 fps=410 q=-0.0 size=N/A time=00:17:38.05 bitrate=N/A speed=17.1x    frame=25623 fps=410 q=-0.0 size=N/A time=00:17:48.69 bitrate=N/A speed=17.1x    frame=25837 fps=410 q=-0.0 size=N/A time=00:17:57.61 bitrate=N/A speed=17.1x    frame=26063 fps=410 q=-0.0 size=N/A time=00:18:07.04 bitrate=N/A speed=17.1x    frame=26262 fps=410 q=-0.0 size=N/A time=00:18:15.34 bitrate=N/A speed=17.1x    frame=26493 fps=411 q=-0.0 size=N/A time=00:18:24.97 bitrate=N/A speed=17.1x    frame=26692 fps=410 q=-0.0 size=N/A time=00:18:33.27 bitrate=N/A speed=17.1x    frame=26916 fps=411 q=-0.0 size=N/A time=00:18:42.62 bitrate=N/A speed=17.1x    frame=27072 fps=410 q=-0.0 size=N/A time=00:18:49.12 bitrate=N/A speed=17.1x    frame=27200 fps=409 q=-0.0 size=N/A time=00:18:54.46 bitrate=N/A speed=  17x    frame=27392 fps=408 q=-0.0 size=N/A time=00:19:02.47 bitrate=N/A speed=  17x    frame=27598 fps=408 q=-0.0 size=N/A time=00:19:11.06 bitrate=N/A speed=  17x    frame=27728 fps=407 q=-0.0 size=N/A time=00:19:16.48 bitrate=N/A speed=  17x    frame=27928 fps=407 q=-0.0 size=N/A time=00:19:24.83 bitrate=N/A speed=  17x    frame=28121 fps=407 q=-0.0 size=N/A time=00:19:32.88 bitrate=N/A speed=  17x    frame=28331 fps=407 q=-0.0 size=N/A time=00:19:41.63 bitrate=N/A speed=  17x    frame=28580 fps=407 q=-0.0 size=N/A time=00:19:52.02 bitrate=N/A speed=  17x    frame=28822 fps=408 q=-0.0 size=N/A time=00:20:02.11 bitrate=N/A speed=  17x    frame=29095 fps=409 q=-0.0 size=N/A time=00:20:13.50 bitrate=N/A speed=  17x    frame=29342 fps=409 q=-0.0 size=N/A time=00:20:23.80 bitrate=N/A speed=17.1x    frame=29597 fps=410 q=-0.0 size=N/A time=00:20:34.44 bitrate=N/A speed=17.1x    frame=29843 fps=410 q=-0.0 size=N/A time=00:20:44.70 bitrate=N/A speed=17.1x    frame=30086 fps=411 q=-0.0 size=N/A time=00:20:54.83 bitrate=N/A speed=17.1x    frame=30337 fps=411 q=-0.0 size=N/A time=00:21:05.30 bitrate=N/A speed=17.1x    frame=30596 fps=412 q=-0.0 size=N/A time=00:21:16.10 bitrate=N/A speed=17.2x    frame=30815 fps=412 q=-0.0 size=N/A time=00:21:25.24 bitrate=N/A speed=17.2x    frame=31032 fps=412 q=-0.0 size=N/A time=00:21:34.29 bitrate=N/A speed=17.2x    frame=31256 fps=412 q=-0.0 size=N/A time=00:21:43.63 bitrate=N/A speed=17.2x    frame=31443 fps=412 q=-0.0 size=N/A time=00:21:51.43 bitrate=N/A speed=17.2x    frame=31672 fps=412 q=-0.0 size=N/A time=00:22:00.98 bitrate=N/A speed=17.2x    frame=31871 fps=412 q=-0.0 size=N/A time=00:22:09.28 bitrate=N/A speed=17.2x    frame=32028 fps=411 q=-0.0 size=N/A time=00:22:15.83 bitrate=N/A speed=17.1x    frame=32176 fps=410 q=-0.0 size=N/A time=00:22:22.00 bitrate=N/A speed=17.1x    frame=32315 fps=409 q=-0.0 size=N/A time=00:22:27.80 bitrate=N/A speed=17.1x    frame=32467 fps=409 q=-0.0 size=N/A time=00:22:34.14 bitrate=N/A speed=  17x    frame=32616 fps=408 q=-0.0 size=N/A time=00:22:40.35 bitrate=N/A speed=  17x    frame=32782 fps=407 q=-0.0 size=N/A time=00:22:47.28 bitrate=N/A speed=  17x    frame=32969 fps=407 q=-0.0 size=N/A time=00:22:55.08 bitrate=N/A speed=  17x    frame=33141 fps=406 q=-0.0 size=N/A time=00:23:02.25 bitrate=N/A speed=  17x    frame=33317 fps=406 q=-0.0 size=N/A time=00:23:09.59 bitrate=N/A speed=16.9x    frame=33475 fps=405 q=-0.0 size=N/A time=00:23:16.18 bitrate=N/A speed=16.9x    frame=33646 fps=405 q=-0.0 size=N/A time=00:23:23.31 bitrate=N/A speed=16.9x    frame=33841 fps=405 q=-0.0 size=N/A time=00:23:31.45 bitrate=N/A speed=16.9x    frame=34053 fps=405 q=-0.0 size=N/A time=00:23:40.29 bitrate=N/A speed=16.9x    [Parsed_psnr_10 @ 000002016c4a3340] PSNR y:45.969573 u:48.807080 v:49.294501 average:46.774126 min:36.914442 max:inf
[out#0/null @ 000002016c4af2c0] video:14697KiB audio:267500KiB subtitle:0KiB other streams:0KiB global headers:0KiB muxing overhead: unknown
frame=34203 fps=405 q=-0.0 Lsize=N/A time=00:23:46.55 bitrate=N/A speed=16.9x    
